<svg preserveAspectRatio="none" overflow="visible" style="display: block;" width="20.9261" height="22.2052" viewBox="0 0 20.9261 22.2052" fill="none" xmlns="http://www.w3.org/2000/svg">
<g id="&#240;&#159;&#166;&#134; icon &#34;files&#34;">
<path id="Vector" d="M13.2506 9.53428e-07C11.7725 -0.000735798 10.3257 0.42553 9.08419 1.22753C7.84265 2.02954 6.85922 3.17313 6.25219 4.52078C5.64516 5.86842 5.44037 7.36274 5.66245 8.82401C5.88453 10.2853 6.52402 11.6513 7.50401 12.7577L0 21.2753L1.04145 22.2052L8.52686 13.7248C9.48971 14.4779 10.6186 14.9901 11.8194 15.2187C13.0203 15.4472 14.2584 15.3855 15.4305 15.0387C16.6027 14.6919 17.6751 14.07 18.5583 13.2249C19.4414 12.3797 20.1099 11.3358 20.508 10.18C20.906 9.02421 21.0222 7.79004 20.8467 6.58029C20.6712 5.37054 20.2092 4.22023 19.4992 3.22517C18.7892 2.23012 17.8516 1.41912 16.7647 0.859739C15.6778 0.300356 14.473 0.0087808 13.2506 0.0092996V9.53428e-07ZM13.2506 13.948C11.5859 13.948 9.98944 13.2867 8.81236 12.1096C7.63527 10.9325 6.97399 9.33604 6.97399 7.67139C6.97399 6.00673 7.63527 4.41026 8.81236 3.23317C9.98944 2.05608 11.5859 1.3948 13.2506 1.3948C14.9152 1.3948 16.5117 2.05608 17.6888 3.23317C18.8659 4.41026 19.5272 6.00673 19.5272 7.67139C19.5272 9.33604 18.8659 10.9325 17.6888 12.1096C16.5117 13.2867 14.9152 13.948 13.2506 13.948Z" fill="#8C8C8C"/>
</g>
</svg>
